# xmcd
#
# Track frame offsets:
#	183
#	16280
#	31958
#	49053
#	67928
#	90033
#	105920
#	121150
#	139040
#	155835
#	172318
#	190015
#	204700
#	224143
#	239500
#	264878
#	280805
#	298108
#	315865
#	330978
#
# Disc length: 4658
#
# Revision: 11
# Processed by: cddbd v1.5.1PL0 Copyright (c) Steve Scherf et al.
# Submitted via: EasyCDDAExtractor 5.0.6
# Normalized: r10:DSETVAR1
#
DISCID=18123014
DTITLE=Various Artist - The History Of Dance Volume 1 Number 5
DYEAR=1900
DGENRE=Blues
TTITLE0=Earth Wind and Fire - September
TTITLE1=Sylvester - You make me feel (mighty real)
TTITLE2=Charles Erland - Let the music play
TTITLE3=Heatwave - Groove Line
TTITLE4=Peter Brown - Do you want to get funky with me
TTITLE5=The Joneses - Sugar Pie Guy
TTITLE6=Chic - I want your love
TTITLE7=Crusaders - Street Life
TTITLE8=Kool and The Gang - Too Hot
TTITLE9=Shalamar - The second time around
TTITLE10=FLB - Boogie Town
TTITLE11=KC and The Sunshine Band - Please Don't Go
TTITLE12=Three Degrees - The Runner
TTITLE13=Pointer Sisters - Fire
TTITLE14=Fatback - Strokin'
TTITLE15=Edwin Starr - Contact
TTITLE16=Gonzales - I haven't stopped dancing yet
TTITLE17=Peaches and Herb - Reunited
TTITLE18=Postive Force - We got the funk
TTITLE19=Brothers Johnson - Stomp
EXTD=corrected by rlokker@worldonline.nl
EXTT0=
EXTT1=
EXTT2=
EXTT3=
EXTT4=
EXTT5=
EXTT6=
EXTT7=
EXTT8=
EXTT9=
EXTT10=
EXTT11=
EXTT12=
EXTT13=
EXTT14=
EXTT15=
EXTT16=
EXTT17=
EXTT18=
EXTT19=
PLAYORDER=
